# xmcd CD database file
#
# Track frame offsets:
#	150
#	15025
#	23550
#	35102
#	45982
#	57832
#	72005
#	83215
#	96485
#	109485
#	125902
#	137692
#	148990
#	160502
#	174777
#	186665
#	200295
#	210510
#	224520
#	237460
#
# Disc length: 3334 seconds
#
# Revision: 0
# Processed by: cddbd v1.5.2PL0 Copyright (c) Steve Scherf et al.
# Submitted via: CD2WAV32(JP) R3.22
#
DISCID=200d0414
DTITLE=ジミー時田とマウンテン・プレイボーイズ - 日本のカントリー20
DYEAR=1996
DGENRE=Country
TTITLE0=コールド・コールド・ハート
TTITLE1=ホンキートンク・マン
TTITLE2=ア・フール・サッチ・アズ・アイ
TTITLE3=北風
TTITLE4=ロング・ゴーン・ロンサム・ブルース
TTITLE5=アイ･キャント・ストップ・ラビング・ユー
TTITLE6=ジャンバラヤ
TTITLE7=テネシー・ワルツ
TTITLE8=アイ・ソー・ザ・ライト
TTITLE9=アイブ・ジャスト・トールド・ママ・グッドバイ
TTITLE10=ユー・アー・マイ・サンシャイン
TTITLE11=カウライジャ
TTITLE12=アイム・ムービン・オン
TTITLE13=サパー・タイム
TTITLE14=ラブシック・ブルース
TTITLE15=アイ・ラブ・ユー・ビコーズ
TTITLE16=プリーズ･ヘルプ・ミー・アイム・フォーリン
TTITLE17=新聞売りのジミー少年
TTITLE18=リリース・ミー
TTITLE19=知りたくないの
EXTD=
EXTT0=
EXTT1=
EXTT2=
EXTT3=
EXTT4=
EXTT5=
EXTT6=
EXTT7=
EXTT8=
EXTT9=
EXTT10=
EXTT11=
EXTT12=
EXTT13=
EXTT14=
EXTT15=
EXTT16=
EXTT17=
EXTT18=
EXTT19=
PLAYORDER=
